<?xml version="1.0" standalone="no"?>
<!DOCTYPE svg PUBLIC "-//W3C//DTD SVG 20010904//EN"
 "http://www.w3.org/TR/2001/REC-SVG-20010904/DTD/svg10.dtd">
<svg version="1.0" xmlns="http://www.w3.org/2000/svg"
 width="318.000000pt" height="159.000000pt" viewBox="0 0 318.000000 159.000000"
 preserveAspectRatio="xMidYMid meet">

<g transform="translate(0.000000,159.000000) scale(0.100000,-0.100000)"
fill="#000000" stroke="none">
<path d="M672 1075 c-84 -31 -110 -44 -100 -52 7 -5 59 -36 115 -67 l101 -57
111 63 c61 35 111 66 111 69 0 4 -8 9 -17 12 -10 2 -61 20 -113 39 l-95 34
-113 -41z"/>
<path d="M968 968 l-106 -69 -7 -102 c-4 -56 -5 -117 -3 -136 l3 -34 85 72
c47 40 89 77 93 81 7 6 48 252 43 256 0 1 -49 -30 -108 -68z"/>
<path d="M594 940 c4 -25 14 -83 23 -130 l15 -85 91 -75 c50 -41 93 -76 96
-78 3 -1 5 58 3 132 l-3 135 -92 57 c-51 31 -103 64 -116 73 l-24 15 7 -44z"/>
<path d="M1200 960 c0 -5 5 -10 10 -10 6 0 10 5 10 10 0 6 -4 10 -10 10 -5 0
-10 -4 -10 -10z"/>
<path d="M1270 960 c0 -5 5 -10 10 -10 6 0 10 5 10 10 0 6 -4 10 -10 10 -5 0
-10 -4 -10 -10z"/>
<path d="M1340 960 c0 -5 5 -10 10 -10 6 0 10 5 10 10 0 6 -4 10 -10 10 -5 0
-10 -4 -10 -10z"/>
<path d="M1410 960 c0 -5 5 -10 10 -10 6 0 10 5 10 10 0 6 -4 10 -10 10 -5 0
-10 -4 -10 -10z"/>
<path d="M1480 960 c0 -5 5 -10 10 -10 6 0 10 5 10 10 0 6 -4 10 -10 10 -5 0
-10 -4 -10 -10z"/>
<path d="M1550 960 c0 -5 5 -10 10 -10 6 0 10 5 10 10 0 6 -4 10 -10 10 -5 0
-10 -4 -10 -10z"/>
<path d="M1620 960 c0 -5 5 -10 10 -10 6 0 10 5 10 10 0 6 -4 10 -10 10 -5 0
-10 -4 -10 -10z"/>
<path d="M1690 960 c0 -5 5 -10 10 -10 6 0 10 5 10 10 0 6 -4 10 -10 10 -5 0
-10 -4 -10 -10z"/>
<path d="M1760 960 c0 -5 5 -10 10 -10 6 0 10 5 10 10 0 6 -4 10 -10 10 -5 0
-10 -4 -10 -10z"/>
<path d="M1830 960 c0 -5 7 -10 15 -10 8 0 15 5 15 10 0 6 -7 10 -15 10 -8 0
-15 -4 -15 -10z"/>
<path d="M1900 960 c0 -5 7 -10 15 -10 8 0 15 5 15 10 0 6 -7 10 -15 10 -8 0
-15 -4 -15 -10z"/>
<path d="M1975 960 c3 -5 10 -10 16 -10 5 0 9 5 9 10 0 6 -7 10 -16 10 -8 0
-12 -4 -9 -10z"/>
<path d="M2050 960 c0 -5 5 -10 10 -10 6 0 10 5 10 10 0 6 -4 10 -10 10 -5 0
-10 -4 -10 -10z"/>
<path d="M2120 960 c0 -5 5 -10 10 -10 6 0 10 5 10 10 0 6 -4 10 -10 10 -5 0
-10 -4 -10 -10z"/>
<path d="M2190 960 c0 -5 5 -10 10 -10 6 0 10 5 10 10 0 6 -4 10 -10 10 -5 0
-10 -4 -10 -10z"/>
<path d="M2260 960 c0 -5 5 -10 10 -10 6 0 10 5 10 10 0 6 -4 10 -10 10 -5 0
-10 -4 -10 -10z"/>
<path d="M2330 960 c0 -5 5 -10 10 -10 6 0 10 5 10 10 0 6 -4 10 -10 10 -5 0
-10 -4 -10 -10z"/>
<path d="M2400 960 c0 -5 5 -10 10 -10 6 0 10 5 10 10 0 6 -4 10 -10 10 -5 0
-10 -4 -10 -10z"/>
<path d="M2470 960 c0 -5 5 -10 10 -10 6 0 10 5 10 10 0 6 -4 10 -10 10 -5 0
-10 -4 -10 -10z"/>
<path d="M2540 960 c0 -5 5 -10 10 -10 6 0 10 5 10 10 0 6 -4 10 -10 10 -5 0
-10 -4 -10 -10z"/>
<path d="M2610 960 c0 -5 5 -10 10 -10 6 0 10 5 10 10 0 6 -4 10 -10 10 -5 0
-10 -4 -10 -10z"/>
<path d="M1200 830 c0 -47 4 -80 10 -80 6 0 10 13 10 29 0 22 6 30 25 35 49
13 55 69 8 87 -50 19 -53 15 -53 -71z m58 26 c-4 -31 -38 -34 -38 -3 0 29 7
37 27 30 8 -3 13 -15 11 -27z"/>
<path d="M1340 883 c-52 -112 -59 -133 -46 -133 7 0 16 9 19 20 4 15 14 20 40
20 27 0 37 -5 42 -20 3 -11 13 -20 21 -20 10 0 8 13 -12 58 -14 31 -30 67 -35
80 -11 28 -13 28 -29 -5z m29 -50 c11 -21 9 -23 -13 -23 -24 0 -25 2 -14 25 6
14 12 24 13 23 1 -2 8 -13 14 -25z"/>
<path d="M1450 830 c0 -47 4 -80 10 -80 6 0 10 14 10 30 0 17 4 30 8 30 4 0
16 -13 25 -30 10 -16 25 -30 33 -30 12 0 11 6 -6 30 -19 27 -20 31 -6 46 34
33 3 84 -51 84 -22 0 -23 -3 -23 -80z m70 31 c0 -14 -28 -33 -40 -26 -11 7
-14 38 -4 48 8 8 44 -10 44 -22z"/>
<path d="M1580 830 c0 -47 4 -80 10 -80 6 0 10 17 10 37 l0 38 31 -38 c17 -20
37 -37 45 -37 10 0 4 14 -20 43 l-36 44 36 34 c19 18 30 35 24 37 -7 3 -27
-11 -46 -29 l-34 -33 0 32 c0 18 -4 32 -10 32 -6 0 -10 -33 -10 -80z"/>
<path d="M1823 900 c-47 -19 -58 -92 -20 -128 32 -31 97 -35 97 -7 0 12 -5 13
-17 7 -21 -11 -41 -6 -65 16 -42 36 -2 109 54 98 21 -4 28 -2 26 7 -6 15 -46
19 -75 7z"/>
<path d="M1940 830 c0 -47 4 -80 10 -80 6 0 10 33 10 80 0 47 -4 80 -10 80 -6
0 -10 -33 -10 -80z"/>
<path d="M2000 833 c0 -49 4 -83 10 -83 6 0 10 23 10 52 l0 52 60 -59 61 -60
-3 85 c-3 96 -20 114 -28 30 l-5 -54 -52 59 -53 60 0 -82z"/>
<path d="M2177 903 c-4 -3 -7 -39 -7 -80 l0 -73 45 0 c25 0 45 5 45 10 0 6
-13 10 -30 10 -25 0 -30 4 -30 25 0 21 5 25 30 25 17 0 30 5 30 10 0 6 -13 10
-30 10 -25 0 -30 4 -30 23 0 20 4 23 30 19 23 -3 30 0 30 12 0 12 -10 16 -38
16 -21 0 -42 -3 -45 -7z"/>
<path d="M2399 852 l-27 -57 -23 53 c-13 28 -26 52 -29 52 -6 0 -30 -112 -30
-139 0 -6 4 -11 9 -11 5 0 13 21 18 48 l9 47 23 -50 23 -50 23 48 c24 50 35
46 35 -14 0 -19 5 -29 15 -29 11 0 14 7 11 23 -3 12 -10 48 -16 80 -6 31 -12
57 -13 57 -1 0 -14 -26 -28 -58z"/>
<path d="M2550 906 c0 -2 -16 -38 -35 -80 -25 -56 -31 -76 -20 -76 7 0 17 9
20 20 5 15 15 20 42 20 26 0 36 -5 40 -20 3 -11 12 -20 19 -20 10 0 7 15 -12
58 -14 31 -30 67 -35 80 -7 19 -19 30 -19 18z m19 -73 c11 -21 9 -23 -13 -23
-24 0 -25 2 -14 25 6 14 12 24 13 23 1 -2 8 -13 14 -25z"/>
<path d="M1200 690 c0 -5 5 -10 10 -10 6 0 10 5 10 10 0 6 -4 10 -10 10 -5 0
-10 -4 -10 -10z"/>
<path d="M1270 690 c0 -5 5 -10 10 -10 6 0 10 5 10 10 0 6 -4 10 -10 10 -5 0
-10 -4 -10 -10z"/>
<path d="M1340 690 c0 -5 5 -10 10 -10 6 0 10 5 10 10 0 6 -4 10 -10 10 -5 0
-10 -4 -10 -10z"/>
<path d="M1410 690 c0 -5 5 -10 10 -10 6 0 10 5 10 10 0 6 -4 10 -10 10 -5 0
-10 -4 -10 -10z"/>
<path d="M1480 690 c0 -5 5 -10 10 -10 6 0 10 5 10 10 0 6 -4 10 -10 10 -5 0
-10 -4 -10 -10z"/>
<path d="M1550 690 c0 -5 5 -10 10 -10 6 0 10 5 10 10 0 6 -4 10 -10 10 -5 0
-10 -4 -10 -10z"/>
<path d="M1620 690 c0 -5 5 -10 10 -10 6 0 10 5 10 10 0 6 -4 10 -10 10 -5 0
-10 -4 -10 -10z"/>
<path d="M1690 690 c0 -5 5 -10 10 -10 6 0 10 5 10 10 0 6 -4 10 -10 10 -5 0
-10 -4 -10 -10z"/>
<path d="M1760 690 c0 -5 5 -10 10 -10 6 0 10 5 10 10 0 6 -4 10 -10 10 -5 0
-10 -4 -10 -10z"/>
<path d="M1830 690 c0 -5 7 -10 15 -10 8 0 15 5 15 10 0 6 -7 10 -15 10 -8 0
-15 -4 -15 -10z"/>
<path d="M1900 690 c0 -5 7 -10 15 -10 8 0 15 5 15 10 0 6 -7 10 -15 10 -8 0
-15 -4 -15 -10z"/>
<path d="M1970 690 c0 -5 7 -10 15 -10 8 0 15 5 15 10 0 6 -7 10 -15 10 -8 0
-15 -4 -15 -10z"/>
<path d="M2050 690 c0 -5 5 -10 10 -10 6 0 10 5 10 10 0 6 -4 10 -10 10 -5 0
-10 -4 -10 -10z"/>
<path d="M2120 690 c0 -5 5 -10 10 -10 6 0 10 5 10 10 0 6 -4 10 -10 10 -5 0
-10 -4 -10 -10z"/>
<path d="M2190 690 c0 -5 5 -10 10 -10 6 0 10 5 10 10 0 6 -4 10 -10 10 -5 0
-10 -4 -10 -10z"/>
<path d="M2260 690 c0 -5 5 -10 10 -10 6 0 10 5 10 10 0 6 -4 10 -10 10 -5 0
-10 -4 -10 -10z"/>
<path d="M2330 690 c0 -5 5 -10 10 -10 6 0 10 5 10 10 0 6 -4 10 -10 10 -5 0
-10 -4 -10 -10z"/>
<path d="M2400 690 c0 -5 5 -10 10 -10 6 0 10 5 10 10 0 6 -4 10 -10 10 -5 0
-10 -4 -10 -10z"/>
<path d="M2470 690 c0 -5 5 -10 10 -10 6 0 10 5 10 10 0 6 -4 10 -10 10 -5 0
-10 -4 -10 -10z"/>
<path d="M2540 690 c0 -5 5 -10 10 -10 6 0 10 5 10 10 0 6 -4 10 -10 10 -5 0
-10 -4 -10 -10z"/>
<path d="M2610 690 c0 -5 5 -10 10 -10 6 0 10 5 10 10 0 6 -4 10 -10 10 -5 0
-10 -4 -10 -10z"/>
</g>
</svg>
